<?xml version="1.0" ?><!DOCTYPE svg  PUBLIC '-//W3C//DTD SVG 1.1//EN'  'http://www.w3.org/Graphics/SVG/1.1/DTD/svg11.dtd'><svg height="512px" style="enable-background:new 0 0 512 512;" version="1.1" viewBox="0 0 512 512" width="512px" xml:space="preserve" xmlns="http://www.w3.org/2000/svg" xmlns:xlink="http://www.w3.org/1999/xlink"><g id="A_-_60_x2C__page_x2C__layout_x2C__report_x2C__presentation"><g><path d="M173.756,340.721c-1.773-0.189-3.553-0.287-5.318-0.287c-7.682,0-14.951,1.792-21.419,4.968l19.771,34.233    L173.756,340.721z"/><path d="M208.816,361.914c-6.755-10.04-17.021-17.148-28.598-20.065l-7.307,40.822L208.816,361.914z"/><path d="M167.747,392.239c-0.052-0.011-0.105-0.012-0.157-0.025c-0.057-0.016-0.108-0.043-0.163-0.062    c-0.102-0.033-0.199-0.069-0.295-0.111c-0.101-0.044-0.197-0.093-0.292-0.146c-0.091-0.052-0.18-0.106-0.267-0.167    c-0.09-0.062-0.174-0.128-0.257-0.199c-0.08-0.067-0.156-0.138-0.23-0.214c-0.076-0.079-0.146-0.163-0.215-0.249    c-0.036-0.046-0.08-0.084-0.113-0.132c-0.028-0.04-0.046-0.086-0.072-0.127c-0.026-0.042-0.062-0.078-0.087-0.122l-24.262-42.008    c-5.165,3.466-9.63,7.894-13.139,13.021c-0.151,0.224-0.291,0.452-0.438,0.678c-0.253,0.388-0.512,0.774-0.753,1.169    c-0.181,0.293-0.347,0.596-0.521,0.892c-0.214,0.368-0.434,0.732-0.638,1.104c-0.17,0.31-0.327,0.625-0.49,0.938    c-0.192,0.368-0.389,0.734-0.572,1.107c-0.157,0.319-0.3,0.645-0.451,0.966c-0.172,0.374-0.349,0.745-0.511,1.122    c-0.142,0.327-0.272,0.659-0.406,0.988c-0.155,0.379-0.311,0.758-0.457,1.141c-0.126,0.333-0.242,0.67-0.361,1.005    c-0.136,0.386-0.273,0.771-0.401,1.16c-0.11,0.338-0.211,0.679-0.313,1.02c-0.118,0.392-0.237,0.783-0.346,1.177    c-0.094,0.343-0.179,0.688-0.266,1.032c-0.101,0.396-0.2,0.795-0.29,1.193c-0.078,0.346-0.148,0.694-0.219,1.042    c-0.083,0.401-0.162,0.803-0.233,1.208c-0.062,0.349-0.117,0.699-0.171,1.048c-0.063,0.407-0.123,0.813-0.176,1.222    c-0.044,0.351-0.085,0.702-0.123,1.056c-0.044,0.409-0.084,0.818-0.117,1.23c-0.029,0.352-0.054,0.705-0.075,1.059    c-0.024,0.412-0.044,0.824-0.058,1.238c-0.013,0.354-0.021,0.708-0.025,1.063c-0.005,0.414-0.004,0.83,0.001,1.245    c0.004,0.354,0.011,0.706,0.023,1.061c0.015,0.416,0.037,0.833,0.063,1.249c0.021,0.354,0.044,0.708,0.073,1.062    c0.034,0.417,0.078,0.833,0.123,1.25c0.039,0.353,0.077,0.705,0.123,1.057c0.055,0.419,0.121,0.836,0.187,1.254    c0.055,0.349,0.109,0.698,0.172,1.048c0.076,0.42,0.163,0.838,0.25,1.256c0.073,0.346,0.142,0.692,0.222,1.036    c0.097,0.421,0.208,0.841,0.317,1.26c0.088,0.34,0.172,0.68,0.268,1.018c0.121,0.426,0.256,0.85,0.389,1.273    c0.104,0.329,0.201,0.659,0.312,0.986c0.146,0.433,0.308,0.862,0.467,1.292c0.116,0.316,0.226,0.634,0.35,0.947    c0.176,0.447,0.37,0.891,0.559,1.333c0.126,0.294,0.244,0.589,0.375,0.881c0.219,0.487,0.459,0.968,0.696,1.45    c0.106,0.216,0.205,0.434,0.315,0.649c0.027,0.053,0.054,0.105,0.081,0.159c0.324,0.629,0.666,1.252,1.021,1.872    c0.09,0.156,0.18,0.314,0.271,0.471c0.188,0.32,0.377,0.639,0.571,0.953c0.326,0.525,0.656,1.049,1.001,1.562    c0.071,0.105,0.146,0.207,0.218,0.312c0.344,0.504,0.696,1.001,1.06,1.49c0.083,0.111,0.165,0.224,0.249,0.334    c0.867,1.149,1.784,2.26,2.747,3.327c0.084,0.093,0.168,0.186,0.252,0.277c0.449,0.49,0.906,0.971,1.374,1.44    c0.045,0.045,0.088,0.092,0.133,0.137c0.457,0.456,0.926,0.897,1.4,1.334c0.219,0.201,0.439,0.4,0.662,0.597    c0.24,0.213,0.484,0.423,0.729,0.632c8.691,7.398,19.878,11.665,31.622,11.666c8.492,0,16.89-2.255,24.289-6.521    c0.712-0.411,1.408-0.838,2.091-1.279c0.225-0.146,0.439-0.301,0.662-0.449c0.451-0.302,0.902-0.603,1.341-0.917    c0.26-0.188,0.51-0.386,0.766-0.577c0.386-0.29,0.774-0.576,1.149-0.875c0.264-0.211,0.518-0.431,0.776-0.646    c0.353-0.294,0.709-0.586,1.052-0.888c0.259-0.229,0.508-0.465,0.762-0.698c0.327-0.302,0.657-0.603,0.976-0.911    c0.25-0.244,0.491-0.494,0.735-0.743c0.307-0.312,0.613-0.622,0.911-0.939c0.24-0.257,0.471-0.521,0.705-0.783    c0.287-0.32,0.573-0.641,0.85-0.968c0.227-0.269,0.446-0.543,0.667-0.815c0.268-0.331,0.536-0.665,0.795-1.002    c0.213-0.278,0.419-0.562,0.626-0.843c0.251-0.344,0.501-0.688,0.741-1.036c0.2-0.287,0.392-0.578,0.585-0.869    c0.233-0.353,0.464-0.707,0.688-1.065c0.185-0.296,0.364-0.594,0.542-0.893c0.216-0.363,0.429-0.729,0.635-1.098    c0.168-0.302,0.333-0.604,0.495-0.908c0.199-0.375,0.395-0.753,0.585-1.133c0.152-0.306,0.302-0.613,0.448-0.923    c0.183-0.385,0.358-0.773,0.532-1.163c0.137-0.311,0.271-0.621,0.402-0.935c0.166-0.396,0.323-0.794,0.478-1.194    c0.121-0.313,0.241-0.626,0.356-0.942c0.147-0.406,0.287-0.814,0.423-1.225c0.105-0.315,0.211-0.63,0.31-0.947    c0.13-0.417,0.25-0.836,0.369-1.256c0.089-0.314,0.179-0.63,0.262-0.947c0.091-0.346,0.17-0.694,0.252-1.042l-47.816-8.014    C167.844,392.271,167.797,392.25,167.747,392.239z"/><polygon points="364.494,43.752 134.674,43.752 134.674,75.56 363.51,75.56   "/><rect height="38.612" width="192.612" x="141.44" y="132.863"/><path d="M215.9,378.434c-0.065-0.291-0.143-0.58-0.212-0.87c-0.114-0.472-0.226-0.941-0.354-1.41    c-0.086-0.313-0.185-0.626-0.277-0.938c-0.131-0.443-0.26-0.886-0.404-1.325c-0.107-0.327-0.226-0.652-0.34-0.978    c-0.148-0.423-0.295-0.846-0.456-1.265c-0.128-0.335-0.268-0.667-0.403-1c-0.167-0.408-0.333-0.815-0.511-1.221    c-0.148-0.337-0.308-0.672-0.464-1.007c-0.128-0.274-0.259-0.548-0.393-0.819l-34.108,19.718l38.823,6.504    c0.022-0.226,0.045-0.451,0.064-0.679c0.025-0.285,0.056-0.569,0.075-0.854c0.035-0.509,0.053-1.019,0.071-1.528    c0.01-0.258,0.026-0.515,0.032-0.771c0.012-0.57,0.006-1.143-0.002-1.713c-0.003-0.199,0.003-0.396-0.003-0.596    c-0.041-1.55-0.154-3.102-0.345-4.651c-0.015-0.12-0.038-0.241-0.053-0.363c-0.084-0.646-0.177-1.293-0.288-1.938    c-0.042-0.248-0.098-0.495-0.145-0.743C216.111,379.468,216.014,378.95,215.9,378.434z"/><polygon points="393.52,102.987 393.52,442.434 423.43,442.434 423.43,103.859   "/><path d="M364.168,101.579c-0.094-0.068-0.177-0.153-0.265-0.23c-0.074-0.065-0.155-0.122-0.224-0.194l0,0    c-0.057-0.06-0.098-0.13-0.148-0.194c-0.084-0.104-0.176-0.205-0.246-0.318c-0.014-0.023-0.021-0.048-0.035-0.071    c-0.313-0.53-0.479-1.14-0.461-1.766v0l0,0l0.004-0.101l0.506-16.584H131.395H88.571v386.129h298.388v-22.534V102.798    l-20.987-0.614C365.318,102.165,364.692,101.951,364.168,101.579z M166.143,109.417h143.212c1.813,0,3.28,1.468,3.28,3.28    c0,1.811-1.468,3.28-3.28,3.28H166.143c-1.811,0-3.28-1.469-3.28-3.28C162.863,110.885,164.332,109.417,166.143,109.417z     M134.88,129.583c0-1.812,1.469-3.28,3.28-3.28h199.172c1.812,0,3.279,1.468,3.279,3.28v45.172c0,1.811-1.468,3.28-3.279,3.28    H138.16c-1.811,0-3.28-1.469-3.28-3.28V129.583z M138.16,199.411h91.893c1.811,0,3.28,1.469,3.28,3.28    c0,1.812-1.469,3.28-3.28,3.28H138.16c-1.811,0-3.28-1.468-3.28-3.28C134.88,200.88,136.349,199.411,138.16,199.411z     M138.16,217.445h91.893c1.811,0,3.28,1.469,3.28,3.28c0,1.812-1.469,3.28-3.28,3.28H138.16c-1.811,0-3.28-1.468-3.28-3.28    C134.88,218.914,136.349,217.445,138.16,217.445z M138.16,235.394h91.893c1.811,0,3.28,1.468,3.28,3.28    c0,1.811-1.469,3.28-3.28,3.28H138.16c-1.811,0-3.28-1.469-3.28-3.28C134.88,236.862,136.349,235.394,138.16,235.394z     M138.16,253.337h158.151c1.812,0,3.28,1.468,3.28,3.28c0,1.811-1.469,3.28-3.28,3.28H138.16c-1.811,0-3.28-1.469-3.28-3.28    C134.88,254.805,136.349,253.337,138.16,253.337z M138.16,271.284h158.151c1.812,0,3.28,1.468,3.28,3.28    c0,1.812-1.469,3.279-3.28,3.279H138.16c-1.811,0-3.28-1.468-3.28-3.279C134.88,272.752,136.349,271.284,138.16,271.284z     M138.16,289.229h158.151c1.812,0,3.28,1.468,3.28,3.279c0,1.813-1.469,3.28-3.28,3.28H138.16c-1.811,0-3.28-1.468-3.28-3.28    C134.88,290.696,136.349,289.229,138.16,289.229z M138.16,307.176h44.202c1.811,0,3.279,1.469,3.279,3.28    s-1.469,3.279-3.279,3.279H138.16c-1.811,0-3.28-1.468-3.28-3.279S136.349,307.176,138.16,307.176z M222.874,397.954    c-0.007,0.071-0.003,0.141-0.015,0.211c-4.484,26.735-27.372,46.141-54.422,46.141c-12.616,0-24.251-4.259-33.563-11.401    c-0.069-0.053-0.136-0.108-0.204-0.16c-0.654-0.507-1.297-1.025-1.927-1.562c-0.37-0.312-0.736-0.628-1.097-0.95    c-0.192-0.172-0.385-0.343-0.574-0.517c-1.196-1.096-2.345-2.248-3.445-3.452c-0.048-0.053-0.095-0.104-0.144-0.157    c-1.136-1.253-2.217-2.561-3.239-3.922c-0.054-0.073-0.108-0.146-0.162-0.219c-0.473-0.637-0.935-1.282-1.382-1.942    c-0.032-0.046-0.065-0.091-0.096-0.138c-0.417-0.62-0.821-1.252-1.213-1.892c-0.183-0.296-0.359-0.596-0.537-0.896    c-0.083-0.142-0.171-0.28-0.253-0.423c-0.062-0.106-0.114-0.215-0.175-0.32c-0.366-0.641-0.719-1.29-1.06-1.946    c-0.077-0.146-0.153-0.295-0.228-0.443c-0.356-0.701-0.696-1.411-1.023-2.129c-0.05-0.109-0.1-0.219-0.148-0.328    c-0.338-0.755-0.658-1.52-0.962-2.292c-0.027-0.07-0.056-0.14-0.083-0.21c-0.315-0.812-0.611-1.632-0.889-2.461    c-0.008-0.023-0.017-0.048-0.025-0.071c-1.828-5.483-2.832-11.34-2.832-17.428c0-11.487,3.538-22.161,9.578-31.004    c4.53-6.7,10.598-12.507,18.051-16.829c8.401-4.844,17.93-7.402,27.563-7.402c19.678,0,38.019,10.576,47.865,27.603l0.001,0.001    c0.001,0.002,0.001,0.002,0.001,0.004C222.854,372.9,224.872,385.796,222.874,397.954z M364.56,427.246h-53.128    c-1.813,0-3.28-1.469-3.28-3.28c0-1.811,1.468-3.279,3.28-3.279h53.128c1.812,0,3.28,1.469,3.28,3.279    C367.84,425.777,366.371,427.246,364.56,427.246z M364.56,405.676h-84.907c-1.812,0-3.279-1.469-3.279-3.28    c0-1.811,1.468-3.279,3.279-3.279h84.907c1.812,0,3.28,1.469,3.28,3.279C367.84,404.207,366.371,405.676,364.56,405.676z     M364.56,384.105H254.499c-1.811,0-3.28-1.468-3.28-3.279c0-1.813,1.469-3.28,3.28-3.28H364.56c1.812,0,3.28,1.468,3.28,3.28    C367.84,382.638,366.371,384.105,364.56,384.105z M367.84,359.255c0,1.812-1.469,3.279-3.28,3.279h-74.919    c-1.813,0-3.28-1.468-3.28-3.279s1.468-3.28,3.28-3.28h74.919C366.371,355.975,367.84,357.443,367.84,359.255z"/><polygon points="370.881,49.484 369.448,95.723 418.551,97.154   "/></g></g><g id="Layer_1"/></svg>